<svg width="3140" height="132" viewBox="0 0 3140 132" fill="none" xmlns="http://www.w3.org/2000/svg">
<g clip-path="url(#clip0_3_21608)">
<path d="M3129.39 78.1857C3121.86 74.947 3112.28 72.8116 3102.35 71.7018C3101.81 71.6547 3101.27 71.6177 3100.73 71.5806C3102.5 71.4238 3104.27 71.2669 3106.04 71.0999L3103.68 71.3192C3105.2 71.209 3106.69 71.0684 3108.18 70.9279C3109.07 70.8596 3109.96 70.7812 3110.85 70.7028C3114.86 70.3752 3118.73 69.8057 3122.67 69.3772C3118.69 66.7149 3112.79 64.7177 3106.61 63.2268C3099.42 61.6626 3091.51 61.1492 3083.67 61.1568C3072.72 61.0136 3061.76 60.8504 3050.8 60.6371C3034.2 60.4002 3027.96 59.8085 3008.58 59.9553C2968.77 60.5251 2929.13 62.2571 2889.44 63.5185C2862.8 64.4404 2836.15 65.2722 2809.48 66.0636C2785.56 65.711 2761.64 65.3084 2737.74 64.7659C2681.02 63.4246 2624.31 61.9332 2567.56 61.2515C2452.96 59.7536 2338.36 58.2457 2223.75 56.7777C2146.56 55.8589 2069.35 54.7396 1992.19 54.9112C1929.58 55.0029 1866.9 53.8436 1804.31 54.5357C1675.77 55.4258 1547.24 56.6661 1418.75 58.097C1365.13 59.1062 1311.49 59.9952 1257.84 60.8242C1214.62 59.7292 1171.38 58.944 1128.14 58.5589C1064.73 59.1301 1001.29 59.4111 937.851 59.652C840.596 59.4309 743.401 56.1303 646.158 54.9793C594.271 54.3911 542.415 54.4834 490.575 54.9259C445.926 56.0425 401.165 55.8875 356.403 55.7624C294.092 55.418 231.781 55.0936 169.478 54.8994C154.207 54.8498 138.954 54.9904 123.682 55.0208C112.95 55.1506 102.162 54.8796 91.4855 55.3301C79.895 56.0587 68.6135 57.6313 58.0929 59.904C58.2426 59.926 58.3824 59.9478 58.5321 59.9698C53.5929 59.8752 48.6433 59.8105 43.7124 59.8461C31.5455 60.2971 19.5846 61.8209 8.89941 64.4415C19.2001 67.5164 30.8743 69.5691 42.8923 70.5663C58.2732 71.3574 73.7852 71.3101 89.2105 71.7717C123.157 72.2654 157.113 72.8193 191.06 73.273C266.598 73.8503 342.136 74.5176 417.681 75.405C478.938 76.0656 540.219 77.1466 601.447 76.8868C663.943 76.8836 726.279 75.2482 788.632 73.943C826.521 73.5181 864.4 73.0731 902.33 73.2789C962.928 73.8109 1023.55 74.7833 1084.13 74.525C1161.4 73.5048 1238.64 72.3042 1315.89 71.0136C1320.36 71.1622 1324.86 71.321 1329.43 71.4807C1360.2 73.073 1390.91 75.0045 1421.76 76.2178C1435.63 76.8391 1449.51 77.4706 1463.39 78.092C1479.19 78.4286 1495.01 78.6454 1510.83 78.9321C1618.03 80.9534 1725.22 78.7641 1832.43 80.9154C1888.29 81.6556 1944.1 83.8852 1999.96 84.4552C2109.92 85.2524 2219.69 83.4569 2329.54 82.5425C2432.28 82.0252 2535.08 82.0187 2637.74 80.6804C2686.07 79.9719 2734.32 78.6824 2782.53 77.2524C2786.87 77.1591 2791.2 77.0457 2795.54 76.9425C2814.12 77.2653 2832.7 77.5481 2851.29 77.7511C2921.34 78.7867 2996.2 79.3751 3057.16 81.202C3066.5 81.4641 3075.84 81.6861 3085.16 82.0181C3094.82 82.4643 3104.61 82.5922 3114 81.4449C3118.19 80.9896 3122.27 80.3329 3126.14 79.4934C3127.54 79.2017 3128.92 78.8896 3130.26 78.5572C3129.98 78.4335 3129.7 78.3099 3129.44 78.1864L3129.39 78.1857ZM436.755 64.5233C423.806 64.3641 410.857 64.2248 397.907 64.0756C412.158 64.1018 426.409 64.1281 440.66 64.1243C465.308 63.7064 489.938 63.1083 514.63 63.081C581.304 62.4423 648.041 63.1246 714.751 64.3266C689.262 64.8335 663.774 65.3104 638.268 65.6271C571.125 66.1296 503.939 65.4415 436.755 64.5233ZM2328.97 72.7942C2217.55 73.8982 2106.21 75.8732 1994.66 75.2352C1943 74.68 1891.39 72.7953 1839.74 72.1102C1726.01 69.7636 1612.33 72.2882 1498.61 70.0417C1482.82 69.8553 1466.78 69.4256 1450.5 68.8327C1537.85 67.9244 1625.22 67.1462 1712.59 66.348C1756.49 65.8917 1800.41 65.6956 1844.31 65.3694C1886.99 65.5471 1929.66 65.7748 1972.33 66.0325C2106.03 65.72 2239.8 68.2285 2373.53 69.8064C2422.41 70.5052 2471.28 71.0541 2520.16 71.6929C2456.44 72.1601 2392.69 72.367 2328.98 72.8044L2328.97 72.7942Z" fill="#60a5fa1a"/>
</g>
<defs>
<clipPath id="clip0_3_21608">
<rect width="3121.24" height="50.29" fill="white" transform="translate(9.46069 20.6055) rotate(0.748845)"/>
</clipPath>
</defs>
</svg>
