<svg width="3140" height="132" viewBox="0 0 3140 132" fill="none" xmlns="http://www.w3.org/2000/svg">
<g clip-path="url(#clip0_3_21663)">
<path d="M641.02 62.9004C641.02 62.9004 641.029 62.9004 641.039 62.9104C641.439 63.1504 641.85 63.3904 642.25 63.6404C641.84 63.3904 641.43 63.1504 641.02 62.9004Z" fill="black"/>
<path d="M3118.48 70.0602C3115.7 69.2402 3112.71 69.0302 3109.86 69.6002C3103.31 70.9802 3097.47 74.5202 3091.1 76.4902C3089.64 77.0202 3088.13 77.4102 3086.65 77.8702L3084.14 78.4702C3077.35 79.7302 3070.48 80.3602 3063.65 81.3502C3054.2 82.9102 3044.62 83.4602 3035.06 83.0802C3024.45 82.1602 3010.22 79.8002 2998.54 75.4502C2979.11 68.1502 2964.81 59.3802 2949.67 49.8502C2939.65 44.1602 2935.49 41.5602 2925.47 35.0802C2917.09 29.8402 2908.84 23.9902 2899.55 20.4502C2892.97 17.9602 2885.86 16.7302 2878.82 17.0202C2870.52 17.3202 2862.42 19.3902 2854.36 21.2302C2845.43 23.2102 2836.84 26.3802 2828.28 29.5502C2818.83 32.9702 2809.56 36.9002 2800.89 42.0202C2795.31 45.2602 2790.24 49.2702 2784.79 52.7202C2774.89 58.7902 2768.25 62.9002 2755.53 67.0502C2748.95 69.2202 2741.75 69.9902 2732.01 70.8002C2725.71 71.2802 2719.39 71.1202 2713.07 71.0702C2709.16 70.9202 2705.26 70.5702 2701.41 69.8902C2697.21 69.1102 2693.04 68.1502 2688.9 67.1502C2686.96 66.5902 2685.02 66.0302 2683.08 65.4702C2669.78 60.8902 2657.72 55.6802 2649.39 49.6902C2641.07 44.0002 2633.35 37.1602 2624.07 33.0202C2613.01 28.2302 2601.38 24.9802 2589.55 22.8002C2579.65 20.7102 2569.53 21.1402 2559.48 21.3202C2545.87 21.6302 2532.02 22.2802 2518.94 26.3602C2501.59 32.3602 2486.19 42.6002 2470.51 51.9302C2465.1 55.0902 2452.19 61.8902 2441.92 65.5602C2427.13 70.9302 2419.01 72.8802 2403.8 74.4802C2392.84 75.1002 2388.99 74.5402 2380.17 74.1902C2367.27 73.1002 2356.97 71.9402 2348.02 68.1702C2337.05 63.9202 2326.67 58.3302 2315.99 53.4102C2305.09 48.0702 2294.47 42.1502 2283.36 37.2302C2271.01 30.9802 2258.57 24.7202 2245.17 20.9902C2226.36 16.7802 2206.74 19.9602 2188.15 23.9202C2169.53 28.6402 2154.89 38.3202 2141.28 45.4602C2128.89 51.5602 2116.77 58.2902 2103.97 63.5002C2093.22 67.6002 2085.52 69.2202 2077.36 71.1702C2064.43 74.2602 2051.23 76.1202 2037.99 77.1602C2029.7 77.7502 2027.27 77.1602 2018.11 76.6402C2005.47 76.0002 1996.32 74.3002 1987.32 70.9902C1976.57 67.2602 1971.71 64.3402 1964.24 59.3902C1956.59 54.7402 1949.22 49.6202 1941.41 45.2302C1933.16 40.9102 1924.33 37.7402 1915.27 35.6302C1906.75 33.7002 1897.98 33.4302 1889.29 32.9002C1883.38 32.5602 1877.45 32.1802 1871.54 32.7002C1863.62 33.2002 1855.76 34.5202 1848.13 36.6902C1841.89 38.6402 1835.92 41.3402 1829.95 44.0002C1813.73 50.8302 1797.96 58.6302 1781.97 65.9702C1771.35 70.7302 1760.77 75.6502 1749.49 78.6602C1745.41 80.0002 1738.39 81.0802 1730.58 81.7602C1715.27 83.0902 1706.27 83.1502 1690.82 79.1002C1682.68 76.5502 1660.91 65.6202 1648.23 59.9702C1636.51 54.6302 1625.14 48.5102 1613.11 43.8902C1601.18 39.1502 1588.79 35.4702 1576.16 33.1602C1569.11 31.9402 1561.91 32.0302 1554.78 32.2802C1544.95 32.6902 1535.09 33.0302 1525.37 34.6802C1515.87 36.4302 1506.51 39.2702 1497.62 43.0402C1482.52 49.6102 1459.87 65.2102 1451.02 71.0902C1445.7 74.1102 1439.88 76.1102 1434.09 78.0102C1426.99 80.2902 1426.37 80.6602 1420.02 81.7502C1412.34 82.9502 1404.49 82.8902 1396.72 82.8702C1384.66 81.9802 1379.24 80.1802 1368.47 76.5102C1356.07 71.7502 1349.93 68.4602 1340.68 60.7902C1336.08 56.7302 1330.81 53.5802 1325.68 50.2502C1318.31 45.2602 1310.09 41.7502 1301.95 38.2102C1291.89 33.7602 1281.25 30.3402 1270.14 30.3402C1259.07 30.1602 1248.27 33.3702 1237.75 36.5202C1230.76 38.7702 1223.79 41.0902 1216.89 43.6202C1210.38 46.2802 1203.96 49.1602 1197.48 51.9002C1188.12 55.9002 1179.18 60.7902 1170.45 66.0002C1164.03 70.1202 1157.33 74.1702 1153.3 75.8802C1142.68 81.1702 1131.31 84.6002 1120.03 88.1402C1107.53 92.0402 1101.74 93.5202 1088.4 95.6102C1075.89 96.6002 1067.38 96.3802 1056.63 94.8602C1042.58 92.8002 1031.58 87.8602 1020.6 80.0402C1013.6 74.6602 1006.85 68.9602 999.641 63.8402C991.991 58.6502 984.241 53.5402 976.131 49.1202C969.741 45.7202 962.431 44.7302 955.451 43.1402C944.851 40.7502 934.071 39.2502 923.261 38.1602C906.561 36.5102 889.361 39.5102 873.271 43.8502C852.971 48.9602 833.721 57.4902 815.381 67.4702C805.281 72.7602 794.931 77.5502 784.541 82.2202C781.481 83.5802 778.191 84.2502 774.961 85.0902L769.731 86.3202C761.391 88.0202 753.141 90.4202 744.631 91.0002C742.551 91.1802 740.461 91.2702 738.371 91.2602C731.361 91.1802 731.091 91.2002 724.151 90.5502C718.131 89.9502 712.101 89.4502 706.141 88.3302C691.971 85.0802 686.541 82.9302 671.091 76.7602C663.671 73.7902 656.211 70.9102 649.011 67.4502C646.261 66.1202 643.601 64.6102 641.051 62.9302C637.411 60.7102 633.761 58.5102 630.101 56.3202C627.491 54.7302 624.861 53.1902 622.191 51.6902C619.361 50.0402 616.421 48.5902 613.601 46.9302C612.531 46.3102 611.471 45.6902 610.401 45.0702C605.031 41.7302 599.751 38.1902 593.771 36.0402C589.971 34.3702 585.921 33.0802 581.781 32.8402C573.161 31.9202 564.451 32.5002 555.851 33.3602C546.111 34.1702 536.441 35.8702 527.071 38.6402C516.121 42.1102 504.931 45.1002 494.631 50.2802C474.851 61.2302 457.401 75.8702 438.071 87.5602C436.541 88.4102 435.021 89.2702 433.491 90.1202C432.791 90.4402 432.091 90.7702 431.391 91.0902C425.971 93.6002 420.371 95.7002 414.751 97.7002C406.711 100.28 398.891 103.61 390.671 105.58C387.361 105.94 384.041 105.82 380.721 105.78C378.101 105.68 375.481 105.63 372.861 105.45C367.021 105.16 361.231 104.29 355.471 103.29C349.651 102.37 343.841 101.36 338.211 99.5902C338.621 99.7102 339.021 99.8302 339.431 99.9502C337.341 99.2302 335.291 98.4102 333.291 97.4702C329.261 95.6902 325.341 93.6602 321.361 91.7502C317.621 89.8602 313.871 87.9902 310.151 86.0802C307.921 84.8902 305.621 83.8402 303.441 82.5602C301.931 81.6902 300.421 80.8102 298.921 79.9402C295.821 77.8602 292.761 75.7202 289.881 73.3502C284.351 68.6202 278.421 64.4002 272.671 59.9502C267.371 55.6002 262.081 51.1602 255.981 47.9802C251.041 45.0402 245.511 43.2702 240.011 41.7102C235.091 40.2402 230.061 39.0902 224.951 38.5302C214.181 36.9402 203.361 39.7002 192.971 42.3502C176.111 46.2402 160.231 53.5602 145.701 62.8802C135.481 68.8002 126.551 76.5802 116.981 83.4402C114.991 84.9002 112.911 86.2102 110.751 87.3902C103.211 91.4002 95.4013 94.9402 87.2513 97.5502C84.2513 98.5002 81.2213 99.3502 78.1613 100.09C78.5613 100 78.9613 99.9002 79.3613 99.8102C69.3313 102.34 59.0312 103.53 48.7612 104.59C37.3213 105.73 25.5013 105.48 15.0312 110.86C19.5813 112.98 24.4312 114.7 29.4613 115.14C36.6012 115.69 43.7313 114.49 50.8512 113.97C70.8913 112.07 91.0813 108.17 109.111 98.8602C124.751 91.8702 136.531 78.9702 151.341 70.6202C161.161 64.5902 167.171 61.2602 178.881 56.7702C188.981 53.1002 199.441 50.6402 206.451 49.2302C217.301 47.1502 224.001 47.7002 235.751 50.7502C238.291 51.4102 248.281 54.4502 253.961 58.1902C253.591 57.9702 253.221 57.7402 252.851 57.5202L254.751 58.7702C255.571 59.2602 256.371 59.8002 257.131 60.3802C260.531 62.8202 263.731 65.5202 266.991 68.1402C272.151 72.1802 277.571 75.9002 282.521 80.2002C290.271 86.7602 299.171 91.7502 308.241 96.2302C315.901 100.04 323.501 104.03 331.361 107.44C339.281 110.73 347.771 112.06 356.181 113.42C367.131 115.32 378.291 115.77 389.381 115.58C395.441 115.39 401.231 112.85 406.991 111.09C412.561 109.2 418.191 107.46 423.701 105.39C436.701 101.08 448.291 93.8502 459.541 86.2002C464.751 82.5602 470.011 79.0102 475.291 75.4702C482.961 70.1202 490.671 64.7702 498.861 60.2202C506.471 56.3502 514.701 54.0202 522.791 51.3902C537.381 46.4002 548.521 44.8102 565.451 43.6802C572.361 43.3202 571.141 43.3502 576.871 43.5202C580.661 43.7202 584.431 44.0702 588.001 45.4702L586.641 45.0702C589.971 46.3202 593.221 47.7402 596.401 49.3302C597.671 50.0902 598.931 50.8502 600.191 51.6402C601.121 52.2202 602.051 52.8002 602.991 53.3802C610.601 58.1302 618.681 62.0602 626.291 66.8102C632.181 70.0002 638.941 75.1502 648.061 79.1802C665.151 86.4402 682.331 93.7502 700.371 98.3102C707.781 100.13 715.391 100.74 722.961 101.49C730.541 102.21 738.181 102.49 745.781 101.97C754.161 101.28 762.331 99.1003 770.531 97.3702C776.051 96.0202 781.681 95.0002 787.041 93.1002C804.291 85.9602 820.671 76.9302 837.341 68.5902C857.421 59.4102 878.721 52.7102 896.761 50.1202C909.651 48.7602 914.761 48.0802 926.441 49.6602C932.251 50.4102 938.091 51.0502 943.851 52.1502C951.351 53.6002 958.861 55.0902 966.261 56.9902C974.721 60.0402 975.601 61.8402 982.891 66.0802C994.051 72.7202 1003.88 81.2402 1014.16 89.1002C1023.23 95.7002 1033.39 100.65 1044.21 103.61C1051.27 105.79 1058.67 106.37 1065.99 107.1C1073.84 107.39 1081.72 107.41 1089.55 106.72C1101.64 104.97 1113.57 101.98 1125.18 98.2202C1141.11 93.4302 1156.95 87.8202 1171.03 78.7902C1185.53 69.5202 1194.02 65.4102 1208.86 59.1702C1216.63 55.6802 1224.55 52.5102 1232.68 49.9502C1254.66 42.3202 1271.44 37.9502 1289.28 45.1502C1297.13 48.0202 1304.73 51.5402 1312.27 55.1302C1317.58 57.9302 1318.96 59.2002 1325.56 63.3602C1330.43 66.2902 1334.42 70.4102 1339.09 73.6302C1345.16 78.1402 1351.91 81.7102 1358.83 84.7002C1366.85 87.9702 1375.17 90.5602 1383.63 92.4302C1390.37 93.8802 1397.27 94.0302 1404.14 94.0102C1410.54 93.6802 1417.01 93.8302 1423.31 92.4802C1432.89 90.4302 1442.3 87.4002 1451.27 83.4502C1460 79.1002 1467.87 73.2502 1475.98 67.8702C1486.91 61.2302 1492.61 57.4802 1502.23 53.1802C1518.5 46.5902 1528.89 44.6102 1546.63 43.7802C1559.18 43.3602 1564.69 42.3902 1576.07 44.4302C1594.83 47.9802 1613.01 55.1102 1632.79 64.9602C1640.19 68.5902 1647.72 71.9502 1655.22 75.3702C1661.14 78.2102 1667 81.1902 1673.01 83.8302C1679.11 86.4502 1685.18 89.2802 1691.68 90.7702C1702.43 93.3802 1713.67 94.1702 1724.69 93.4002C1735.34 92.6702 1746.05 91.6102 1756.24 88.2502C1770.62 84.0302 1784.04 77.1502 1797.64 70.9702C1814.35 63.0302 1831.16 55.2202 1848.35 48.3702C1861.72 43.7702 1875.32 42.9102 1890.46 44.0802C1897.62 44.5102 1904.83 44.8602 1911.88 46.2902C1926.35 49.2302 1938.07 55.4402 1950.52 63.8702C1956.82 67.6802 1962.87 71.9202 1969.33 75.4602C1979.01 80.5102 1989.62 83.7802 2000.29 85.9902C2007.31 87.2502 2014.46 87.4802 2021.56 88.0002C2027.41 88.3802 2033.28 88.7502 2039.13 88.2602C2059.81 86.7302 2080.25 82.6102 2100.1 76.6802C2110.28 73.5502 2119.79 68.7602 2129.25 63.9402C2135.19 60.9302 2141.22 58.0602 2147.09 54.9102C2161.83 47.2002 2169.45 41.6402 2185.65 36.2702C2187.5 35.6602 2189.35 35.0402 2191.25 34.5702C2191.71 34.4602 2192.18 34.3402 2192.64 34.2302C2194.43 33.9002 2196.22 33.5602 2198.01 33.2302C2202.77 32.3302 2207.56 31.6202 2212.37 31.0702C2225.03 29.4902 2235.43 30.1602 2242.1 31.6102C2254.18 35.2102 2265.62 40.5802 2276.76 46.4102C2289.45 52.0802 2301.62 58.8002 2314.12 64.8702C2328.42 71.4102 2342.25 79.4302 2357.8 82.6302C2373.33 85.3602 2389.21 86.3202 2404.95 85.5902C2421.74 84.0902 2438.2 79.5102 2453.68 72.9002C2461.68 69.3202 2469.52 65.3802 2477.1 60.9702C2480.91 58.7702 2484.67 56.4702 2488.4 54.1302C2491.19 52.3902 2494.01 50.6902 2496.86 49.0502C2498.08 48.3202 2499.34 47.6702 2500.58 46.9902C2501.05 46.7402 2501.52 46.4802 2501.99 46.2302C2509.77 42.3202 2517.52 38.2002 2525.96 35.9202C2528.54 35.3202 2531.14 34.7902 2533.77 34.3702C2540.01 33.4602 2546.3 32.9402 2552.6 32.6802C2555.59 32.6002 2558.58 32.5102 2561.57 32.4302L2569.93 32.3102C2571.41 32.2802 2572.89 32.2802 2574.37 32.3102C2573.9 32.3002 2573.42 32.2802 2572.95 32.2702C2574.75 32.2702 2576.55 32.3602 2578.34 32.5502C2585.09 33.0602 2591.71 34.6202 2598.3 36.0802C2599.34 36.3302 2600.38 36.5802 2601.42 36.8302C2603.8 37.5302 2606.17 38.2502 2608.52 39.0502C2611.84 40.1302 2615.11 41.3602 2618.32 42.7402C2620.37 43.5602 2622.36 44.5202 2624.29 45.6102C2630.58 49.5802 2636.4 54.2302 2642.5 58.4702C2648.08 62.2702 2653.95 65.6202 2660.05 68.5202C2675.23 75.0402 2691.16 80.4802 2707.7 81.9402C2725.36 82.7602 2743.47 82.5902 2760.47 77.2502C2771.49 73.7402 2781.57 67.8202 2791.39 61.8002C2797.22 58.1202 2802.6 53.7602 2808.66 50.4502C2809.49 49.9902 2810.31 49.5302 2811.14 49.0802C2811.62 48.8302 2813.34 47.9202 2814.05 47.5602C2818.31 45.3902 2822.76 43.6402 2827.2 41.8802C2836.49 38.3302 2845.75 34.6302 2855.4 32.1802C2857.4 31.6502 2859.42 31.1902 2861.43 30.7102C2862.05 30.5702 2862.67 30.4302 2863.29 30.2902C2869.41 28.9702 2875.61 27.7202 2881.89 27.7002C2881.43 27.6902 2880.98 27.6702 2880.52 27.6602C2884.99 27.6802 2889.39 28.5202 2893.7 29.6402C2897.06 30.7202 2900.21 32.2802 2903.33 33.9002C2905.13 34.8202 2906.87 35.8502 2908.61 36.8702C2909.37 37.3302 2910.13 37.7902 2910.89 38.2402C2911.71 38.7502 2912.52 39.2702 2913.34 39.7802C2920.12 44.0202 2926.81 48.4002 2933.66 52.5302C2935.54 53.6202 2937.38 54.7602 2939.29 55.7902C2940.98 56.7202 2942.64 57.7102 2944.31 58.6902C2945.01 59.1302 2946.02 59.7602 2946.51 60.0302C2961.1 69.4102 2976.27 77.9802 2992.45 84.2902C3006.64 89.4602 3021.53 92.8102 3036.65 93.4302C3047.58 93.9602 3058.49 92.7102 3069.28 91.0302C3078.74 89.8802 3088.29 88.7802 3097.22 85.2702C3103.06 82.7102 3109.07 80.5602 3114.81 77.8102C3116.7 76.7902 3118.78 76.0902 3120.5 74.8102C3121.79 73.6902 3122.9 72.3702 3124.15 71.2102C3122.36 70.4602 3120.4 70.4802 3118.54 70.1102L3118.48 70.0602Z" fill="#60a5fa1a"/>
</g>
<defs>
<clipPath id="clip0_3_21663">
<rect width="3109.09" height="98.63" fill="white" transform="translate(15 17)"/>
</clipPath>
</defs>
</svg>
