<svg width="942" height="187" viewBox="0 0 942 187" fill="none" xmlns="http://www.w3.org/2000/svg">
<path d="M5 50.3716C20.5978 88.657 72.8196 106.467 108.334 118.92C142.32 130.837 176.467 135.589 212.464 136.199C251.982 136.869 292.313 138.076 331.486 132.107C374.467 125.557 415.325 113.912 457.214 102.777C488.922 94.3487 524 80.0914 549.067 58.4427C558.465 50.326 569.898 40.5003 567.483 26.6127C564.861 11.5357 542.519 6.73897 530.082 5.58211C489.926 1.84665 440.326 16.001 416.063 50.5989C406.363 64.4294 405.145 91.8349 410.606 107.438C419.295 132.263 438.816 148.608 462.671 158.366C498.35 172.962 540.291 182.509 578.851 180.875C635.034 178.494 692.267 156.422 743.685 135.403C788.231 117.194 832.187 94.9736 875.325 73.562C895.442 63.5768 914.649 51.3596 936.029 44.2329" stroke="#60a5fa1a" stroke-width="5" stroke-linecap="round"/>
</svg>
