<svg width="429" height="110" viewBox="0 0 429 110" fill="none" xmlns="http://www.w3.org/2000/svg">
<path fill-rule="evenodd" clip-rule="evenodd" d="M380.812 28.0931C359.653 22.1123 317.24 12.9757 292.128 9.02035C232.442 -0.425813 166.268 -2.57113 110.617 3.14367C70.8259 7.17855 41.7303 12.0434 25.4633 17.4102C13.8601 21.1758 4.82592 26.5986 3.45224 30.571C3.0101 31.9579 3.06112 31.976 4.40027 30.3362C8.20608 25.6847 19.0067 22.5487 47.8617 17.7127C56.0872 16.2916 69.1985 14.0917 76.9428 12.7282C103.701 8.11884 140.303 4.15044 164.098 3.29126C193.074 2.27286 228.797 3.13918 253.104 5.49307C286.853 8.8028 302.673 11.2266 335.449 18.1938C369.078 25.35 372.639 26.3305 392.2 33.2302C408.988 39.2006 409.378 39.3965 414.413 42.6744C424.248 49.0889 427.122 52.4558 427.661 58.3093C428.356 64.8475 426.655 68.1314 420.458 72.39C415.497 75.7729 400.487 82.4446 391.962 85.0172C350.648 97.4323 300.628 104.292 225.552 107.845C184.916 109.749 150.294 109.503 97.1795 106.741C54.5602 104.566 31.3408 100.311 14.2711 91.6094C5.18604 86.9485 2.24286 83.6141 1.51119 77.1773C1.09463 73.5405 1.21552 72.7257 2.62197 68.8222C4.02841 64.9187 4.45546 64.2128 7.43238 61.3825C15.856 53.3406 30.0726 45.3572 47.3575 38.9226C61.2365 33.7931 85.2075 27.3345 101.232 24.3979C110.526 22.7277 127.509 20.6465 138.516 19.8142C148.56 19.0972 185.159 17.5302 206.516 16.8901C215.349 16.6575 222.608 16.3223 222.524 16.2353C222.098 15.3404 151.43 17.2013 132.148 18.6361C103.2 20.694 69.0606 28.0544 44.4239 37.479C21.9131 46.1155 4.4344 58.2002 1.12835 67.3759C-1.56045 74.9982 0.668028 83.5115 6.62171 87.9166C19.4217 97.4445 43.0079 103.717 76.0352 106.313C99.9928 108.199 153.247 110.096 180.625 109.996C222.163 109.9 285.859 106.302 316.047 102.398C348.97 98.0939 364.207 95.106 387.858 88.4189C400.883 84.7014 409.985 80.8469 419.924 74.8308C426.493 70.8188 429.5 65.8263 428.932 59.7337C428.274 52.2936 424.985 48.3215 413.995 41.439C409.141 38.4546 407.257 37.6129 396.138 33.4866C389.267 30.986 382.379 28.5362 380.812 28.0931Z" fill="#60a5fa"/>
</svg>
