<svg width="447" height="39" viewBox="0 0 447 39" fill="none" xmlns="http://www.w3.org/2000/svg">
<path fill-rule="evenodd" clip-rule="evenodd" d="M421.186 9.08192C349.656 1.95896 298.531 -0.451443 230.444 0.0678378C201.403 0.312497 196.933 0.470643 162.776 2.33984C127.737 4.24248 94.68 7.6245 67.8459 11.9422C46.4165 15.3792 9.71025 25.7937 2.27872 30.5363L0 31.9744L2.79384 30.9673C4.34699 30.4015 11.6356 28.7172 18.9059 27.1461C26.224 25.6409 38.215 23.0798 45.5514 21.4612C52.8879 19.8426 65.1638 17.3271 72.767 15.8674C88.0965 12.9095 126.98 7.84212 144.436 6.5609C166.218 4.92421 202.423 2.68449 207.928 2.63356C210.974 2.59694 221.404 2.46069 231.084 2.26276C292.902 1.09114 347.84 3.06416 404.05 8.37965C416.263 9.51636 426.341 10.8354 420.654 10.5665C362.151 7.5008 332.353 6.63639 289.112 6.82221C260.383 6.94238 252.327 7.2252 210.911 9.50469C170.729 11.7487 120.486 16.92 91.6902 21.7964C73.1158 24.9337 71.2298 25.3881 71.0102 26.7482C70.7723 28.2217 72.5119 28.674 75.83 28.0413C102.886 22.7126 150.754 17.0456 184.674 15.1967C221.373 13.1522 272.699 14.3159 273.229 17.1909C273.661 19.5852 246.869 22.9213 199.718 26.3194C166.409 28.7309 155.709 29.8124 136.565 32.8586C127.68 34.288 125.548 34.8195 125.42 35.6129C124.88 38.9565 130.409 39.8396 140.498 38.1955C149.629 36.6891 187.651 35.1466 213.477 35.2603C248.956 35.3462 257.509 35.6078 316.815 38.046C328.483 38.5726 337.501 38.8503 336.883 38.6935C333.947 38.05 290.981 35.0825 270.664 34.1629C250.993 33.23 212.416 32.4167 195.305 32.6485C175.687 32.8289 148.077 34.3485 140.862 35.5795C135.088 36.5757 132.251 36.762 130.502 36.3665C128.192 35.8232 128.619 35.7169 136.717 34.4524C152.922 31.8669 160.853 31.2734 198.323 29.5264C229.892 28.1158 255.628 25.8899 265.316 23.833C270.226 22.7569 276.482 19.8613 276.701 18.5012C276.784 17.9911 276.169 16.7302 275.28 15.7163C273.799 14.0264 273.361 13.8402 270.18 13.6228C255.767 12.716 241.119 12.1785 223.132 12.0379C211.571 11.9354 201.88 11.8409 201.547 11.7296C200.416 11.4909 246.805 9.1918 258.07 8.95633C292.746 8.21646 349.132 9.54882 394.677 12.1144C440.041 14.7094 447.806 14.7868 446.938 12.5555C446.592 11.8026 442.07 11.1967 421.186 9.08192ZM200.4 11.9533C200.202 12.096 199.68 12.0707 199.308 11.837C198.879 11.5942 199.078 11.4514 199.705 11.5516C200.341 11.5951 200.656 11.8197 200.4 11.9533ZM197.459 12.0648C197.26 12.2075 196.738 12.1822 196.366 11.9485C195.938 11.7057 196.136 11.5629 196.763 11.6631C197.399 11.7066 197.714 11.9312 197.459 12.0648ZM194.517 12.1763C194.319 12.319 193.796 12.2937 193.425 12.06C192.996 11.8172 193.195 11.6744 193.822 11.7746C194.458 11.8181 194.772 12.0427 194.517 12.1763Z" fill="#60a5fa1a"/>
</svg>
