<svg width="76" height="69" viewBox="0 0 76 69" fill="none" xmlns="http://www.w3.org/2000/svg">
<path d="M74.1593 20.9156C73.6015 21.0404 73.0653 21.3043 72.5146 21.5011C70.754 21.885 68.9608 22.0626 67.1785 22.0242C63.4181 22.005 58.2884 21.6307 52.5139 21.3859C50.8692 21.3619 49.2245 21.3475 47.5834 21.3283C46.3517 18.4823 45.2033 15.8187 44.352 13.4382C43.363 10.7266 42.4465 7.96217 41.6531 5.13537C41.3959 4.24269 41.1459 3.34522 40.9068 2.44294C40.7475 1.87662 40.6062 1.25271 40.262 0.839965C39.1643 -0.753413 37.3747 0.0528743 36.8313 1.96301C36.0815 3.72916 35.3316 5.50012 34.6034 7.28547C33.2304 10.741 31.9045 13.0159 29.7418 17.1625C29.0317 18.5111 28.3181 19.8501 27.6008 21.1939C23.6448 21.1747 19.6925 21.1507 15.7365 21.1027C11.7588 21.002 10.2953 21.0596 6.71609 20.522C5.55321 20.3205 4.39758 20.0421 3.27093 19.6198C2.79636 19.4182 2.31454 19.2358 1.80737 19.2694C1.02487 19.4182 0.274978 20.1189 0.0974674 21.1747C-0.290158 22.7057 0.535811 24.0879 1.56103 24.6974C2.34715 25.2878 3.14051 25.8493 3.95923 26.3532C5.65102 27.4139 7.39353 28.3209 9.07444 29.4056C11.4292 31.0182 13.7042 32.8179 15.9829 34.6129C16.9538 35.3424 17.9101 36.0767 18.852 36.8158C17.3305 39.4026 15.7873 41.9606 14.2114 44.4851C12.4254 47.4031 10.5416 50.2107 8.61437 52.9607C7.02764 55.3364 5.91548 58.2736 5.30687 61.3308C6.98779 60.6828 8.53104 59.603 9.91128 58.216C10.3098 58.1872 10.7155 58.1776 11.114 58.1584C11.1104 58.1824 11.1031 58.2064 11.0995 58.2256C11.0416 58.5087 10.9945 58.7967 10.951 59.0847C10.3098 59.6126 9.70479 60.2077 9.15777 60.918C8.55278 61.6811 7.87534 62.5066 7.73043 63.6536C7.71957 63.8072 7.69421 63.9656 7.72681 64.1144C7.79564 64.052 7.86447 63.9896 7.94417 63.9512C8.7158 63.5432 9.578 63.7448 10.3859 63.5576C11.4074 63.3513 12.4327 63.0537 13.3782 62.4922C20.2178 58.1872 27.1697 54.2229 34.0491 50.0427C35.0381 50.9834 36.0452 51.9529 37.0741 52.9511C39.7548 55.5764 42.5008 58.1056 45.4968 60.0637C48.7246 62.2186 52.1806 63.6968 55.5461 65.4198C57.64 66.442 59.7447 67.4451 61.893 68.2466C63.1501 68.5633 64.6824 69.9887 65.8743 67.7091C66.4576 66.5908 66.146 65.055 65.3852 64.2248C64.8889 63.5001 64.447 62.7034 64.0159 61.9067C62.1357 58.7439 60.3352 55.5092 58.8065 52.0153C57.3393 48.9629 55.8975 44.0052 54.3361 39.0475C55.6801 39.1098 53.3326 39.537 54.6331 39.0475C54.7962 39.0475 54.5281 38.8555 54.5172 38.7835C53.9774 38.0204 57.0712 36.7102 56.4336 36.1007C59.8824 34.1473 63.3493 32.2516 66.7691 30.2167C67.3197 30.0967 67.8704 29.9383 68.4029 29.7271C68.7652 29.588 69.1202 29.4152 69.4716 29.2328C69.3376 29.0936 69.1999 28.9593 69.0622 28.8249C69.1709 28.7577 69.2832 28.6905 69.3919 28.6233C70.8591 27.7162 72.3335 26.8427 73.779 25.8733C74.6339 25.2782 75.8366 24.9278 75.9779 23.4352C76.1699 22.0578 75.2099 20.7284 74.163 20.8964L74.1593 20.9156ZM21.2684 32.6547C20.1743 31.8005 19.0766 30.951 17.979 30.1015C16.3524 28.8201 14.7294 27.5291 13.0847 26.3004C14.6063 26.3436 16.1314 26.3724 17.6529 26.4012C17.0008 26.6412 16.3596 26.9339 15.7365 27.2891C17.3993 29.0744 19.4317 30.1495 21.5328 30.6054C21.7031 30.831 21.877 31.0518 22.0545 31.2629C21.7936 31.7285 21.5292 32.194 21.2647 32.6547H21.2684ZM24.7932 35.472C24.7353 35.424 24.6773 35.376 24.6193 35.328C24.8802 34.8672 25.141 34.4017 25.4018 33.941C25.4779 33.9842 25.5576 34.0226 25.6337 34.0609C25.3547 34.5313 25.0794 35.0064 24.7932 35.472ZM46.772 30.2071C46.8299 30.3559 46.8951 30.4998 46.9531 30.6486C46.8843 30.6918 46.8191 30.735 46.7502 30.7782C46.6741 30.5958 46.5944 30.4135 46.5184 30.2263C46.6017 30.2215 46.685 30.2119 46.772 30.2071ZM38.3818 20.0325C37.9689 20.4212 37.5704 20.8292 37.1755 21.2515C37.0813 21.2515 36.9907 21.2515 36.8966 21.2515C37.4146 20.2149 37.9254 19.1686 38.3927 18.0936C38.4434 18.6647 38.5231 19.2358 38.6246 19.7973C38.5412 19.8741 38.4579 19.9461 38.3782 20.0277L38.3818 20.0325ZM39.9468 13.4718C40.4033 14.8108 40.8742 16.097 41.3597 17.3401C40.8272 16.3562 40.2439 15.4251 39.6824 14.4701C39.773 14.1389 39.8635 13.803 39.9505 13.4718H39.9468ZM36.4002 13.4334C37.0415 12.0608 37.766 10.3906 38.4471 8.80686C38.6898 9.61794 38.9434 10.4242 39.2042 11.2257C37.9471 12.0176 36.8277 13.2126 35.846 14.5181C36.0307 14.1581 36.2191 13.7982 36.4039 13.4334H36.4002ZM35.7627 31.2869C35.8242 31.1861 35.8858 31.0854 35.9474 30.9894C36.451 30.9702 36.9545 30.9462 37.4581 30.9222C37.2588 31.1046 37.0632 31.2869 36.8676 31.4693C36.4981 31.4117 36.1322 31.3493 35.7627 31.2869ZM39.0846 46.952C39.2803 47.3167 39.4868 47.6719 39.7077 48.0126C40.7293 49.4764 41.8487 50.8154 42.9754 52.14C41.3524 50.6282 39.7403 49.0925 38.1283 47.5567C38.4471 47.3551 38.7659 47.1535 39.0846 46.952ZM54.6295 58.4608C53.4413 56.829 52.3472 55.6531 51.4017 54.127C49.5216 51.3337 47.8298 48.3246 46.0764 45.397C45.6598 44.6963 45.2504 43.9812 44.8266 43.2853C45.5728 42.8005 46.3191 42.3158 47.069 41.8311C48.5 45.1138 49.9708 48.363 51.5104 51.5593C52.6081 53.8102 53.5572 56.1955 54.6331 58.4608H54.6295ZM58.8282 29.9383C58.9876 29.7895 59.1398 29.6264 59.2919 29.468C59.397 29.4776 59.5056 29.4872 59.6107 29.5016C59.3499 29.6456 59.089 29.7943 58.8282 29.9383Z" fill="#fcd34d"/>
</svg>
